<svg width="58" height="58" viewBox="0 0 58 58" fill="none" xmlns="http://www.w3.org/2000/svg">
<path fill-rule="evenodd" clip-rule="evenodd" d="M28.5982 57.7027C44.3925 57.7027 57.1963 44.7855 57.1963 28.8514C57.1963 12.9172 44.3925 0 28.5982 0C12.8038 0 0 12.9172 0 28.8514C0 36.2034 2.7258 42.9131 7.21345 48.0081L20.553 32.0852L29.7295 17.7547L24.387 15.0281L16.6561 22.0031C15.9647 22.7006 14.8333 22.6372 14.142 21.8763C13.4506 21.1788 13.5134 20.0374 14.2677 19.3399L22.8157 11.5405C23.3814 11.0333 24.1356 10.9699 24.827 11.2869L35.072 16.4865C36.1405 17.3108 37.209 18.262 38.1518 19.2131L41.6088 25.9979L48.774 21.6861C49.5911 21.1788 50.7225 21.4324 51.2253 22.3202C51.7281 23.1445 51.4767 24.2859 50.5968 24.7931L41.9859 29.9927C41.6716 30.183 41.3573 30.2464 41.0431 30.2464C40.4146 30.2464 39.8489 29.9293 39.5346 29.422L35.7634 23.4615L29.6667 33.0998L36.392 34.685C37.1462 34.8119 37.7119 35.3191 38.0261 36.0166C38.2775 36.7141 38.2147 37.5385 37.7747 38.1726L30.1066 50.4106C29.4153 51.4252 28.0953 51.6788 27.0897 51.1081C25.9583 50.474 25.5812 49.079 26.2097 47.9376L32.1808 38.4896L23.4442 36.4605L10.6761 51.3357C15.5795 55.3187 21.8128 57.7027 28.5982 57.7027ZM45.6942 11.6039C45.6942 14.2655 43.5555 16.4231 40.9174 16.4231C38.2792 16.4231 36.1405 14.2655 36.1405 11.6039C36.1405 8.94242 38.2792 6.78482 40.9174 6.78482C43.5555 6.78482 45.6942 8.94242 45.6942 11.6039Z" fill="#E60000"/>
</svg>
